<svg aria-hidden="true" style="position: absolute; width: 0; height: 0; overflow: hidden;" version="1.1" xmlns="http://www.w3.org/2000/svg" xmlns:xlink="http://www.w3.org/1999/xlink">
<defs>
<symbol id="icon-favicon" viewBox="0 0 55 32">
<path fill="#173d33" style="fill: var(--color1, #173d33)" d="M37.829 22.771c-0.115-0.273-9.56-18.774-9.715-19.029-0.326-0.772-0.81-1.47-1.421-2.049s-1.337-1.028-2.131-1.317-1.64-0.414-2.486-0.366c-0.845 0.048-1.671 0.268-2.427 0.646s-1.424 0.906-1.964 1.55c-0.54 0.645-0.939 1.392-1.174 2.197s-0.299 1.647-0.188 2.477c0.11 0.83 0.392 1.628 0.828 2.345 0.115 0.273 9.155 17.981 9.31 18.236 0.115 0.274 0.251 0.539 0.405 0.793 0.326 0.772 0.81 1.47 1.421 2.049s1.336 1.028 2.131 1.317 1.64 0.414 2.486 0.366c0.845-0.048 1.671-0.268 2.427-0.646s1.424-0.906 1.964-1.55c0.54-0.645 0.939-1.393 1.174-2.197s0.299-1.647 0.188-2.477c-0.11-0.83-0.392-1.628-0.828-2.345z"></path>
<path fill="#97d28b" style="fill: var(--color2, #97d28b)" d="M26.921 10.252c0.579-0.61 1.025-1.331 1.309-2.119s0.401-1.625 0.344-2.46c-0.057-0.835-0.288-1.649-0.678-2.391s-0.93-1.397-1.588-1.924-1.418-0.914-2.233-1.137c-0.816-0.223-1.669-0.278-2.507-0.161s-1.642 0.404-2.363 0.842c-0.721 0.438-1.343 1.019-1.826 1.705-0.203 0.214-15.54 18.897-15.71 19.139-0.579 0.61-1.025 1.331-1.309 2.119s-0.402 1.625-0.344 2.46c0.058 0.835 0.289 1.648 0.678 2.391s0.931 1.397 1.588 1.924c0.657 0.527 1.418 0.914 2.233 1.137s1.669 0.278 2.507 0.161 1.642-0.404 2.363-0.842c0.721-0.438 1.342-1.019 1.826-1.705 0.203-0.214 15.54-18.897 15.71-19.138z"></path>
<path fill="#97d28b" style="fill: var(--color2, #97d28b)" d="M53.312 10.252c0.579-0.61 1.025-1.331 1.309-2.119s0.402-1.625 0.344-2.46c-0.058-0.835-0.289-1.649-0.679-2.391s-0.93-1.397-1.588-1.924-1.418-0.914-2.233-1.137c-0.816-0.223-1.669-0.278-2.507-0.161s-1.642 0.404-2.363 0.842c-0.721 0.438-1.343 1.019-1.826 1.705-0.203 0.214-15.54 18.897-15.71 19.139-0.579 0.61-1.025 1.331-1.309 2.119s-0.401 1.625-0.344 2.46c0.058 0.835 0.288 1.649 0.678 2.391s0.931 1.397 1.588 1.924c0.657 0.527 1.418 0.914 2.233 1.137s1.669 0.278 2.507 0.161 1.642-0.404 2.363-0.842c0.721-0.438 1.343-1.019 1.826-1.705 0.203-0.214 15.54-18.897 15.71-19.139z"></path>
</symbol>
<symbol id="icon-circleArrow" viewBox="0 0 30 32">
<path fill="#97d28b" style="fill: var(--color2, #97d28b)" d="M29.867 16c0 8.247-6.686 14.933-14.933 14.933s-14.933-6.686-14.933-14.933c0-8.247 6.686-14.933 14.933-14.933s14.933 6.686 14.933 14.933z"></path>
<path fill="none" stroke="#173d33" style="stroke: var(--color1, #173d33)" stroke-linejoin="round" stroke-linecap="round" stroke-miterlimit="10" stroke-width="1.7784" d="M19.789 17.728l-4.856 4.316-4.856-4.316"></path>
<path fill="none" stroke="#173d33" style="stroke: var(--color1, #173d33)" stroke-linejoin="round" stroke-linecap="round" stroke-miterlimit="10" stroke-width="1.7784" d="M14.932 9.956v11.968"></path>
</symbol>
<symbol id="icon-logo" viewBox="0 0 215 32">
<path fill="#97d28b" style="fill: var(--color2, #97d28b)" d="M170.352 17.712c-0.874 0-1.538-0.275-1.992-0.824s-0.68-1.264-0.68-2.144c0-0.405 0.050-0.781 0.152-1.128 0.106-0.352 0.262-0.667 0.464-0.944 0.208-0.283 0.486-0.504 0.832-0.664s0.744-0.24 1.192-0.24c0.614 0 1.114 0.144 1.504 0.432 0.39 0.283 0.656 0.693 0.8 1.232l-0.728 0.152c-0.24-0.763-0.762-1.144-1.568-1.144-0.602 0-1.072 0.205-1.408 0.616s-0.504 0.981-0.504 1.712c0 0.736 0.17 1.304 0.512 1.704 0.342 0.395 0.822 0.592 1.44 0.592 0.518 0 0.92-0.128 1.208-0.384 0.294-0.256 0.44-0.565 0.44-0.928v-0.6h-1.592v-0.608h2.288v1.088c0 0.592-0.206 1.088-0.616 1.488-0.41 0.395-0.992 0.592-1.744 0.592zM173.751 17.6v-5.712h2.096c0.603 0 1.075 0.147 1.416 0.44 0.342 0.288 0.512 0.691 0.512 1.208 0 0.416-0.114 0.763-0.344 1.040-0.229 0.272-0.554 0.451-0.976 0.536l1.392 2.488h-0.848l-1.264-2.384h-1.248v2.384h-0.736zM174.487 14.552h1.336c0.379 0 0.672-0.085 0.88-0.256 0.214-0.171 0.32-0.408 0.32-0.712 0-0.699-0.405-1.048-1.216-1.048h-1.32v2.016zM178.814 17.6v-5.712h3.856v0.648h-3.12v1.848h2.584v0.648h-2.584v1.92h3.128v0.648h-3.864zM183.65 17.6v-5.712h3.856v0.648h-3.12v1.848h2.584v0.648h-2.584v1.92h3.128v0.648h-3.864zM188.486 17.6v-5.712h0.888l2.624 3.912 0.432 0.688h0.080l-0.008-1.096v-3.504h0.712v5.712h-0.848l-2.536-3.752-0.552-0.848h-0.072l0.008 1.088v3.512h-0.728z"></path>
<path fill="#173d33" style="fill: var(--color1, #173d33)" d="M194.597 17.6v-5.712h3.856v0.648h-3.12v1.848h2.584v0.648h-2.584v1.92h3.128v0.648h-3.864zM199.433 17.6v-5.712h2.096c0.602 0 1.074 0.147 1.416 0.44 0.342 0.288 0.512 0.691 0.512 1.208 0 0.416-0.114 0.763-0.344 1.040-0.23 0.272-0.554 0.451-0.976 0.536l1.392 2.488h-0.848l-1.264-2.384h-1.248v2.384h-0.736zM200.169 14.552h1.336c0.378 0 0.672-0.085 0.88-0.256 0.214-0.171 0.32-0.408 0.32-0.712 0-0.699-0.406-1.048-1.216-1.048h-1.32v2.016zM206.799 17.712c-0.874 0-1.538-0.275-1.992-0.824s-0.68-1.264-0.68-2.144c0-0.405 0.051-0.781 0.152-1.128 0.107-0.352 0.262-0.667 0.464-0.944 0.208-0.283 0.486-0.504 0.832-0.664s0.744-0.24 1.192-0.24c0.614 0 1.115 0.144 1.504 0.432 0.39 0.283 0.656 0.693 0.8 1.232l-0.728 0.152c-0.24-0.763-0.762-1.144-1.568-1.144-0.602 0-1.072 0.205-1.408 0.616s-0.504 0.981-0.504 1.712c0 0.736 0.171 1.304 0.512 1.704 0.342 0.395 0.822 0.592 1.44 0.592 0.518 0 0.92-0.128 1.208-0.384 0.294-0.256 0.44-0.565 0.44-0.928v-0.6h-1.592v-0.608h2.288v1.088c0 0.592-0.205 1.088-0.616 1.488-0.41 0.395-0.992 0.592-1.744 0.592zM211.506 17.6v-2.024l-2.056-3.688h0.856l1.56 2.968 1.568-2.968h0.848l-2.040 3.688v2.024h-0.736zM168.048 24.8v-5.712h3.744v0.648h-3.008v1.984h2.496v0.656h-2.496v2.424h-0.736zM174.845 24.912c-0.848 0-1.512-0.285-1.992-0.856-0.474-0.571-0.712-1.277-0.712-2.12s0.243-1.547 0.728-2.112c0.491-0.571 1.15-0.856 1.976-0.856s1.486 0.285 1.976 0.856c0.491 0.571 0.736 1.275 0.736 2.112 0 0.843-0.24 1.549-0.72 2.12-0.474 0.571-1.138 0.856-1.992 0.856zM174.845 24.256c0.598 0 1.072-0.211 1.424-0.632 0.358-0.421 0.536-0.984 0.536-1.688 0-0.699-0.178-1.259-0.536-1.68-0.357-0.432-0.832-0.648-1.424-0.648-0.581 0-1.053 0.216-1.416 0.648-0.357 0.421-0.536 0.981-0.536 1.68 0 0.704 0.176 1.267 0.528 1.688 0.358 0.421 0.832 0.632 1.424 0.632zM178.549 24.8v-5.712h2.096c0.602 0 1.074 0.147 1.416 0.44 0.341 0.288 0.512 0.691 0.512 1.208 0 0.416-0.115 0.763-0.344 1.040-0.23 0.272-0.555 0.451-0.976 0.536l1.392 2.488h-0.848l-1.264-2.384h-1.248v2.384h-0.736zM179.285 21.752h1.336c0.378 0 0.672-0.085 0.88-0.256 0.213-0.171 0.32-0.408 0.32-0.712 0-0.699-0.406-1.048-1.216-1.048h-1.32v2.016zM185.448 24.8v-5.712h0.736v5.056h3v0.656h-3.736zM189.94 24.8v-5.712h0.736v5.712h-0.736zM192.058 24.8v-5.712h3.744v0.648h-3.008v1.984h2.496v0.656h-2.496v2.424h-0.736zM196.613 24.8v-5.712h3.856v0.648h-3.12v1.848h2.584v0.648h-2.584v1.92h3.128v0.648h-3.864z"></path>
<path fill="#173d33" style="fill: var(--color1, #173d33)" d="M35.788 25.143c-4.118 0-7.022-2.904-7.022-6.864s2.904-6.864 7.022-6.864c4.118 0 6.97 2.904 6.97 6.864v1.030h-10.982c0.396 2.086 1.98 3.221 4.013 3.221 1.531 0 2.64-0.449 3.353-1.426h3.089c-1.003 2.455-3.379 4.039-6.442 4.039zM31.854 16.906h7.894c-0.502-1.901-2.059-2.878-3.96-2.878-1.954 0-3.432 1.003-3.934 2.878zM50.252 25.143c-4.118 0-7.022-2.904-7.022-6.864s2.904-6.864 7.022-6.864c3.511 0 6.098 2.112 6.758 5.148h-2.878c-0.607-1.505-2.006-2.508-3.881-2.508-2.482 0-4.145 1.769-4.145 4.224s1.663 4.224 4.145 4.224c1.874 0 3.274-1.003 3.881-2.508h2.878c-0.66 3.036-3.247 5.148-6.758 5.148zM64.51 25.143c-4.118 0-7.022-2.904-7.022-6.864s2.904-6.864 7.022-6.864c4.118 0 7.022 2.904 7.022 6.864s-2.904 6.864-7.022 6.864zM64.51 22.503c2.482 0 4.118-1.769 4.118-4.224s-1.637-4.224-4.118-4.224c-2.482 0-4.145 1.769-4.145 4.224s1.663 4.224 4.145 4.224zM77.495 25.143c-3.3 0-5.386-1.769-5.465-4.171h2.878c0.053 0.977 0.924 1.637 2.587 1.637 1.742 0 2.561-0.739 2.561-1.637 0-1.109-1.241-1.241-2.772-1.452-2.112-0.264-4.99-0.66-4.99-3.749 0-2.614 2.033-4.356 5.174-4.356s5.095 1.795 5.148 4.066h-2.825c-0.079-0.898-0.898-1.531-2.297-1.531-1.505 0-2.323 0.713-2.323 1.61 0 1.109 1.294 1.241 2.772 1.452 2.006 0.264 4.99 0.634 4.99 3.749 0 2.64-2.138 4.382-5.439 4.382zM90.474 25.143c-4.118 0-7.022-2.904-7.022-6.864s2.904-6.864 7.022-6.864c4.118 0 7.022 2.904 7.022 6.864s-2.904 6.864-7.022 6.864zM90.474 22.503c2.482 0 4.118-1.769 4.118-4.224s-1.637-4.224-4.118-4.224c-2.482 0-4.145 1.769-4.145 4.224s1.663 4.224 4.145 4.224zM98.945 24.8v-18.744h2.851v18.744h-2.851zM110.25 25.143c-3.854 0-6.442-2.218-6.442-6.6v-6.785h2.851v6.785c0 2.64 1.426 3.96 3.59 3.96s3.59-1.32 3.59-3.96v-6.785h2.851v6.785c0 4.356-2.587 6.6-6.442 6.6zM123.5 25.143c-3.142 0-5.28-1.742-5.28-5.333v-12.672h2.851v4.62h6.943v2.587h-6.943v5.465c0 1.901 0.977 2.693 2.429 2.693s2.455-0.766 2.455-2.693v-0.317h2.825v0.317c0 3.59-2.138 5.333-5.28 5.333zM131.672 9.91c-1.109 0-1.927-0.845-1.927-1.954s0.818-1.954 1.927-1.954c1.109 0 1.927 0.845 1.927 1.954s-0.818 1.954-1.927 1.954zM130.22 24.8v-13.042h2.851v13.042h-2.851zM141.552 25.143c-4.118 0-7.022-2.904-7.022-6.864s2.904-6.864 7.022-6.864c4.118 0 7.022 2.904 7.022 6.864s-2.904 6.864-7.022 6.864zM141.552 22.503c2.482 0 4.118-1.769 4.118-4.224s-1.637-4.224-4.118-4.224c-2.482 0-4.145 1.769-4.145 4.224s1.663 4.224 4.145 4.224zM149.574 24.8v-6.785c0-4.356 2.587-6.6 6.442-6.6s6.442 2.218 6.442 6.6v6.785h-2.851v-6.785c0-2.64-1.426-3.96-3.59-3.96s-3.59 1.32-3.59 3.96v6.785h-2.851z"></path>
<path fill="#173d33" style="fill: var(--color1, #173d33)" d="M17.064 21.447c-0.052-0.123-4.312-8.448-4.382-8.563-0.147-0.348-0.365-0.661-0.641-0.922s-0.603-0.462-0.961-0.593-0.74-0.186-1.121-0.165c-0.381 0.022-0.754 0.121-1.095 0.291s-0.642 0.408-0.886 0.698c-0.244 0.29-0.424 0.627-0.529 0.988s-0.135 0.741-0.085 1.115c0.050 0.373 0.177 0.733 0.374 1.055 0.052 0.123 4.13 8.092 4.2 8.206 0.052 0.123 0.113 0.242 0.183 0.357 0.147 0.348 0.365 0.661 0.641 0.922s0.603 0.462 0.961 0.593 0.74 0.186 1.121 0.165c0.381-0.022 0.754-0.121 1.095-0.291s0.642-0.408 0.886-0.698 0.424-0.627 0.53-0.988c0.106-0.362 0.135-0.741 0.085-1.115s-0.177-0.733-0.374-1.055z"></path>
<path fill="#97d28b" style="fill: var(--color2, #97d28b)" d="M12.143 15.814c0.261-0.274 0.462-0.599 0.591-0.954s0.181-0.731 0.155-1.107c-0.026-0.376-0.13-0.742-0.306-1.076s-0.42-0.629-0.716-0.866c-0.297-0.237-0.64-0.411-1.007-0.512s-0.753-0.125-1.131-0.072c-0.378 0.053-0.741 0.182-1.066 0.379s-0.606 0.458-0.824 0.767c-0.092 0.096-7.010 8.504-7.086 8.612-0.261 0.274-0.462 0.599-0.591 0.954s-0.181 0.731-0.155 1.107 0.13 0.742 0.306 1.076c0.176 0.334 0.42 0.629 0.716 0.866s0.639 0.411 1.007 0.512c0.368 0.1 0.753 0.125 1.131 0.072s0.741-0.182 1.066-0.379c0.325-0.197 0.606-0.458 0.824-0.767 0.092-0.096 7.010-8.504 7.086-8.612z"></path>
<path fill="#97d28b" style="fill: var(--color2, #97d28b)" d="M24.048 15.813c0.261-0.275 0.462-0.599 0.591-0.954s0.181-0.731 0.155-1.107c-0.026-0.376-0.13-0.742-0.306-1.076s-0.42-0.629-0.716-0.866c-0.297-0.237-0.64-0.411-1.007-0.512s-0.753-0.125-1.131-0.072c-0.378 0.053-0.741 0.182-1.066 0.379s-0.606 0.458-0.824 0.767c-0.092 0.096-7.010 8.504-7.086 8.612-0.261 0.275-0.462 0.599-0.59 0.954s-0.181 0.731-0.155 1.107c0.026 0.376 0.13 0.742 0.306 1.076s0.42 0.629 0.716 0.866c0.297 0.237 0.64 0.411 1.007 0.512s0.753 0.125 1.131 0.072c0.378-0.053 0.741-0.182 1.066-0.379s0.606-0.458 0.824-0.767c0.092-0.096 7.010-8.504 7.086-8.612z"></path>
</symbol>
<symbol id="icon-close" viewBox="0 0 32 32">
<svg xmlns="http://www.w3.org/2000/svg" viewBox="0 0 20 20" fill="none">
  <path d="M5.83325 5.83325L14.1666 14.1666M5.83325 14.1666L14.1666 5.83325" stroke-width="1.5" stroke-linecap="round" stroke-linejoin="round"/>
</svg>
</symbol>
<symbol id="icon-arrow-left" viewBox="0 0 32 32">
<svg xmlns="http://www.w3.org/2000/svg"  viewBox="0 0 36 36" fill="none">
  <path d="M14.3542 8.89343L5.24925 17.9984L14.3542 27.1034"  stroke-width="1.5" stroke-miterlimit="10" stroke-linecap="round" stroke-linejoin="round"/>
  <path d="M30.749 17.9988H5.50402"  stroke-width="1.5" stroke-miterlimit="10" stroke-linecap="round" stroke-linejoin="round"/>
</svg>
</symbol>
<symbol id="icon-arrow-right" viewBox="0 0 24 24">
<svg xmlns="http://www.w3.org/2000/svg"  viewBox="0 0 36 36" fill="none">
  <path d="M21.6458 8.89343L30.7508 17.9984L21.6458 27.1034"  stroke-width="1.5" stroke-miterlimit="10" stroke-linecap="round" stroke-linejoin="round"/>
  <path d="M5.25098 17.9988H30.496" stroke-width="1.5" stroke-miterlimit="10" stroke-linecap="round" stroke-linejoin="round"/>
</svg>
</symbol>
<symbol id="icon-call" viewBox="0 0 32 32">
<svg xmlns="http://www.w3.org/2000/svg" viewBox="0 0 24 24" fill="none">
  <path d="M21.97 18.33C21.97 18.69 21.89 19.06 21.72 19.42C21.55 19.78 21.33 20.12 21.04 20.44C20.55 20.98 20.01 21.37 19.4 21.62C18.8 21.87 18.15 22 17.45 22C16.43 22 15.34 21.76 14.19 21.27C13.04 20.78 11.89 20.12 10.75 19.29C9.6 18.45 8.51 17.52 7.47 16.49C6.44 15.45 5.51 14.36 4.68 13.22C3.86 12.08 3.2 10.94 2.72 9.81C2.24 8.67 2 7.58 2 6.54C2 5.86 2.12 5.21 2.36 4.61C2.6 4 2.98 3.44 3.51 2.94C4.15 2.31 4.85 2 5.59 2C5.87 2 6.15 2.06 6.4 2.18C6.66 2.3 6.89 2.48 7.07 2.74L9.39 6.01C9.57 6.26 9.7 6.49 9.79 6.71C9.88 6.92 9.93 7.13 9.93 7.32C9.93 7.56 9.86 7.8 9.72 8.03C9.59 8.26 9.4 8.5 9.16 8.74L8.4 9.53C8.29 9.64 8.24 9.77 8.24 9.93C8.24 10.01 8.25 10.08 8.27 10.16C8.3 10.24 8.33 10.3 8.35 10.36C8.53 10.69 8.84 11.12 9.28 11.64C9.73 12.16 10.21 12.69 10.73 13.22C11.27 13.75 11.79 14.24 12.32 14.69C12.84 15.13 13.27 15.43 13.61 15.61C13.66 15.63 13.72 15.66 13.79 15.69C13.87 15.72 13.95 15.73 14.04 15.73C14.21 15.73 14.34 15.67 14.45 15.56L15.21 14.81C15.46 14.56 15.7 14.37 15.93 14.25C16.16 14.11 16.39 14.04 16.64 14.04C16.83 14.04 17.03 14.08 17.25 14.17C17.47 14.26 17.7 14.39 17.95 14.56L21.26 16.91C21.52 17.09 21.7 17.3 21.81 17.55C21.91 17.8 21.97 18.05 21.97 18.33Z" stroke="#173D33" stroke-width="1.5" stroke-miterlimit="10"/>
</svg>
</symbol>
<symbol id="icon-cpu-charge" viewBox="0 0 32 32">
<svg xmlns="http://www.w3.org/2000/svg" viewBox="0 0 16 16" fill="none">
  <path d="M6.40008 13.3333H9.60008C12.2667 13.3333 13.3334 12.2666 13.3334 9.59996V6.39996C13.3334 3.73329 12.2667 2.66663 9.60008 2.66663H6.40008C3.73341 2.66663 2.66675 3.73329 2.66675 6.39996V9.59996C2.66675 12.2666 3.73341 13.3333 6.40008 13.3333Z" stroke="#173D33" stroke-linecap="round" stroke-linejoin="round"/>
  <path d="M7.00008 11.3333H9.00008C10.6667 11.3333 11.3334 10.6666 11.3334 8.99996V6.99996C11.3334 5.33329 10.6667 4.66663 9.00008 4.66663H7.00008C5.33341 4.66663 4.66675 5.33329 4.66675 6.99996V8.99996C4.66675 10.6666 5.33341 11.3333 7.00008 11.3333Z" stroke="#173D33" stroke-linecap="round" stroke-linejoin="round"/>
  <path d="M5.34009 2.66671V1.33337" stroke="#173D33" stroke-linecap="round" stroke-linejoin="round"/>
  <path d="M8 2.66671V1.33337" stroke="#173D33" stroke-linecap="round" stroke-linejoin="round"/>
  <path d="M10.6667 2.66671V1.33337" stroke="#173D33" stroke-linecap="round" stroke-linejoin="round"/>
  <path d="M13.3333 5.33337H14.6666" stroke="#173D33" stroke-linecap="round" stroke-linejoin="round"/>
  <path d="M13.3333 8H14.6666" stroke="#173D33" stroke-linecap="round" stroke-linejoin="round"/>
  <path d="M13.3333 10.6666H14.6666" stroke="#173D33" stroke-linecap="round" stroke-linejoin="round"/>
  <path d="M10.6667 13.3334V14.6667" stroke="#173D33" stroke-linecap="round" stroke-linejoin="round"/>
  <path d="M8.00659 13.3334V14.6667" stroke="#173D33" stroke-linecap="round" stroke-linejoin="round"/>
  <path d="M5.34009 13.3334V14.6667" stroke="#173D33" stroke-linecap="round" stroke-linejoin="round"/>
  <path d="M1.33325 5.33337H2.66659" stroke="#173D33" stroke-linecap="round" stroke-linejoin="round"/>
  <path d="M1.33325 8H2.66659" stroke="#173D33" stroke-linecap="round" stroke-linejoin="round"/>
  <path d="M1.33325 10.6666H2.66659" stroke="#173D33" stroke-linecap="round" stroke-linejoin="round"/>
  <path d="M7.9999 6.46667L7.37323 7.56001C7.23323 7.80001 7.34656 8.00001 7.62656 8.00001H8.37323C8.65323 8.00001 8.76656 8.20001 8.62656 8.44001L7.9999 9.53334" stroke="#173D33" stroke-linecap="round" stroke-linejoin="round"/>
</svg>
</symbol>
<symbol id="icon-facebook" viewBox="0 0 32 32">
<svg xmlns="http://www.w3.org/2000/svg"  viewBox="0 0 24 24" fill="none">
  <path d="M14 9.3V12.2H16.6C16.8 12.2 16.9 12.4 16.9 12.6L16.5 14.5C16.5 14.6 16.3 14.7 16.2 14.7H14V22H11V14.8H9.3C9.1 14.8 9 14.7 9 14.5V12.6C9 12.4 9.1 12.3 9.3 12.3H11V9C11 7.3 12.3 6 14 6H16.7C16.9 6 17 6.1 17 6.3V8.7C17 8.9 16.9 9 16.7 9H14.3C14.1 9 14 9.1 14 9.3Z"/>
  <path d="M15 22H9C4 22 2 20 2 15V9C2 4 4 2 9 2H15C20 2 22 4 22 9V15C22 20 20 22 15 22Z" stroke-width="1.5" stroke-linecap="round" stroke-linejoin="round"/>
</svg>
</symbol>
<symbol id="icon-global-edit" viewBox="0 0 32 32">
<svg xmlns="http://www.w3.org/2000/svg" viewBox="0 0 16 16" fill="none">
  <path d="M14.6666 8.00004C14.6666 4.32004 11.6799 1.33337 7.99992 1.33337C4.31992 1.33337 1.33325 4.32004 1.33325 8.00004C1.33325 11.68 4.31992 14.6667 7.99992 14.6667" stroke="#173D33" stroke-linecap="round" stroke-linejoin="round"/>
  <path d="M5.33324 2H5.9999C4.6999 5.89333 4.6999 10.1067 5.9999 14H5.33324" stroke="#173D33" stroke-linecap="round" stroke-linejoin="round"/>
  <path d="M10 2C10.6467 3.94667 10.9733 5.97333 10.9733 8" stroke="#173D33" stroke-linecap="round" stroke-linejoin="round"/>
  <path d="M2 10.6667V10C3.94667 10.6467 5.97333 10.9733 8 10.9733" stroke="#173D33" stroke-linecap="round" stroke-linejoin="round"/>
  <path d="M2 5.99978C5.89333 4.69978 10.1067 4.69978 14 5.99978" stroke="#173D33" stroke-linecap="round" stroke-linejoin="round"/>
  <path d="M12.8068 10.4933L10.4468 12.8534C10.3534 12.9467 10.2668 13.12 10.2468 13.2467L10.1201 14.1467C10.0734 14.4733 10.3001 14.7 10.6268 14.6533L11.5268 14.5267C11.6534 14.5067 11.8334 14.42 11.9201 14.3267L14.2801 11.9667C14.6868 11.56 14.8801 11.0867 14.2801 10.4867C13.6868 9.89334 13.2134 10.0867 12.8068 10.4933Z" stroke="#173D33" stroke-miterlimit="10" stroke-linecap="round" stroke-linejoin="round"/>
  <path d="M12.4668 10.8334C12.6668 11.5534 13.2268 12.1134 13.9468 12.3134" stroke="#173D33" stroke-miterlimit="10" stroke-linecap="round" stroke-linejoin="round"/>
</svg>
<path stroke-linejoin="round" stroke-linecap="round" stroke-miterlimit="10" stroke-width="2" d="M24.934 21.667c0.4 1.44 1.52 2.56 2.96 2.96"></path>
</symbol>
<symbol id="icon-instagram" viewBox="0 0 32 32">
<svg xmlns="http://www.w3.org/2000/svg"  viewBox="0 0 24 24" fill="none">
  <path d="M9 22H15C20 22 22 20 22 15V9C22 4 20 2 15 2H9C4 2 2 4 2 9V15C2 20 4 22 9 22Z"  stroke-width="1.5" stroke-linecap="round" stroke-linejoin="round"/>
  <path d="M12 15.5C13.933 15.5 15.5 13.933 15.5 12C15.5 10.067 13.933 8.5 12 8.5C10.067 8.5 8.5 10.067 8.5 12C8.5 13.933 10.067 15.5 12 15.5Z"  stroke-width="1.5" stroke-linecap="round" stroke-linejoin="round"/>
  <path d="M17.6361 7H17.6477" stroke-width="2" stroke-linecap="round" stroke-linejoin="round"/>
</svg>
</symbol>
<symbol id="icon-map" viewBox="0 0 32 32">
<svg xmlns="http://www.w3.org/2000/svg" viewBox="0 0 24 24" fill="none">
  <path d="M2.29004 7.77998V17.51C2.29004 19.41 3.64004 20.19 5.28004 19.25L7.63004 17.91C8.14004 17.62 8.99004 17.59 9.52004 17.86L14.77 20.49C15.3 20.75 16.15 20.73 16.66 20.44L20.99 17.96C21.54 17.64 22 16.86 22 16.22V6.48998C22 4.58998 20.65 3.80998 19.01 4.74998L16.66 6.08998C16.15 6.37998 15.3 6.40998 14.77 6.13998L9.52004 3.51998C8.99004 3.25998 8.14004 3.27998 7.63004 3.56998L3.30004 6.04998C2.74004 6.36998 2.29004 7.14998 2.29004 7.77998Z" stroke="#173D33" stroke-width="1.5" stroke-linecap="round" stroke-linejoin="round"/>
  <path d="M8.56006 4V17" stroke="#173D33" stroke-width="1.5" stroke-linecap="round" stroke-linejoin="round"/>
  <path d="M15.73 6.61914V19.9991" stroke="#173D33" stroke-width="1.5" stroke-linecap="round" stroke-linejoin="round"/>
</svg>
</symbol>
<symbol id="icon-maximize-circle" viewBox="0 0 32 32">
<svg xmlns="http://www.w3.org/2000/svg"  viewBox="0 0 16 16" fill="none">
  <path d="M11.3333 2H13.9999V4.66667" stroke="#173D33" stroke-linecap="round" stroke-linejoin="round"/>
  <path d="M10 6L14 2" stroke="#173D33" stroke-linecap="round" stroke-linejoin="round"/>
  <path d="M4.66667 14H2V11.3334" stroke="#173D33" stroke-linecap="round" stroke-linejoin="round"/>
  <path d="M6 10L2 14" stroke="#173D33" stroke-linecap="round" stroke-linejoin="round"/>
  <path d="M9.3466 1.46672C8.91327 1.38005 8.45992 1.33337 7.99992 1.33337C4.31992 1.33337 1.33325 4.32004 1.33325 8.00004C1.33325 8.46004 1.37993 8.90671 1.46659 9.33337" stroke="#173D33" stroke-linecap="round" stroke-linejoin="round"/>
  <path d="M6.65332 14.5333C7.08665 14.62 7.54 14.6666 8 14.6666C11.68 14.6666 14.6667 11.68 14.6667 7.99996C14.6667 7.54663 14.62 7.09996 14.5333 6.66663" stroke="#173D33" stroke-linecap="round" stroke-linejoin="round"/>
</svg>
</symbol>
<symbol id="icon-menu" viewBox="0 0 24 24">
<svg xmlns="http://www.w3.org/2000/svg" viewBox="0 0 16 17" fill="none">
  <path d="M2 5.16699H14" stroke="#292D32" stroke-linecap="round"/>
  <path d="M2 8.5H14" stroke="#292D32" stroke-linecap="round"/>
  <path d="M2 11.833H14" stroke="#292D32" stroke-linecap="round"/>
</svg>
</symbol>
<symbol id="icon-minus" viewBox="0 0 32 32">
<svg xmlns="http://www.w3.org/2000/svg" viewBox="0 0 16 16" fill="none">
  <path d="M4 8H12" stroke="#173D33" stroke-width="1.5" stroke-linecap="round" stroke-linejoin="round"/>
</svg>
</symbol>
<symbol id="icon-plus" viewBox='0 0 28 28'>
<svg xmlns="http://www.w3.org/2000/svg" viewBox="0 0 28 28" fill="none">
  <path d="M7 14H21" stroke="#97D28B" stroke-width="1.5" stroke-linecap="round" stroke-linejoin="round"/>
  <path d="M14 21V7" stroke="#97D28B" stroke-width="1.5" stroke-linecap="round" stroke-linejoin="round"/>
</svg>
</symbol>
<symbol id="icon-ranking" viewBox="0 0 32 32">
<svg xmlns="http://www.w3.org/2000/svg" viewBox="0 0 16 16" fill="none">
  <path d="M5.77992 9.33337H2.66659C1.93325 9.33337 1.33325 9.93337 1.33325 10.6667V14.6667H5.77992V9.33337Z" stroke="#173D33" stroke-miterlimit="10" stroke-linecap="round" stroke-linejoin="round"/>
  <path d="M8.88677 6.66663H7.10677C6.37344 6.66663 5.77344 7.26663 5.77344 7.99996V14.6666H10.2201V7.99996C10.2201 7.26663 9.62677 6.66663 8.88677 6.66663Z" stroke="#173D33" stroke-miterlimit="10" stroke-linecap="round" stroke-linejoin="round"/>
  <path d="M13.3333 11.3334H10.22V14.6667H14.6666V12.6667C14.6666 11.9334 14.0666 11.3334 13.3333 11.3334Z" stroke="#173D33" stroke-miterlimit="10" stroke-linecap="round" stroke-linejoin="round"/>
  <path d="M8.34658 1.38L8.69991 2.08667C8.74658 2.18667 8.87324 2.28 8.97991 2.29333L9.61991 2.4C10.0266 2.46667 10.1266 2.76666 9.83324 3.05332L9.33324 3.55332C9.24658 3.63999 9.19991 3.8 9.22658 3.91333L9.36658 4.52667C9.47991 5.01334 9.21991 5.20001 8.79324 4.94668L8.19324 4.59334C8.08658 4.52668 7.90658 4.52668 7.79991 4.59334L7.19991 4.94668C6.77324 5.20001 6.51324 5.01334 6.62657 4.52667L6.76658 3.91333C6.79324 3.8 6.74658 3.63332 6.65991 3.55332L6.16658 3.06C5.87324 2.76666 5.96658 2.47332 6.37991 2.40666L7.01991 2.30001C7.12657 2.28001 7.25324 2.18668 7.29991 2.09334L7.65324 1.38666C7.84658 0.99999 8.15324 1 8.34658 1.38Z" stroke="#173D33" stroke-linecap="round" stroke-linejoin="round"/>
</svg>
</symbol>
<symbol id="icon-sms" viewBox="0 0 32 32">
<svg xmlns="http://www.w3.org/2000/svg" viewBox="0 0 24 24" fill="none">
  <path d="M17 20.5H7C4 20.5 2 19 2 15.5V8.5C2 5 4 3.5 7 3.5H17C20 3.5 22 5 22 8.5V15.5C22 19 20 20.5 17 20.5Z" stroke="#173D33" stroke-width="1.5" stroke-miterlimit="10" stroke-linecap="round" stroke-linejoin="round"/>
  <path d="M17 9L13.87 11.5C12.84 12.32 11.15 12.32 10.12 11.5L7 9" stroke="#173D33" stroke-width="1.5" stroke-miterlimit="10" stroke-linecap="round" stroke-linejoin="round"/>
</svg>
</symbol>
</defs>
</svg>
